<?xml version="1.0" encoding="UTF-8"?>
<svg width="218px" height="35px" viewBox="0 0 218 35" version="1.1" xmlns="http://www.w3.org/2000/svg" xmlns:xlink="http://www.w3.org/1999/xlink">
    <title>天数</title>
    <defs>
        <linearGradient x1="50%" y1="0%" x2="50%" y2="100%" id="linearGradient-1">
            <stop stop-color="#29659F" offset="0%"></stop>
            <stop stop-color="#28BCFF" stop-opacity="0" offset="100%"></stop>
        </linearGradient>
    </defs>
    <g id="页面-1" stroke="none" stroke-width="1" fill="none" fill-rule="evenodd">
        <g id="天数" transform="translate(1.000000, 1.000000)">
            <g id="编组-12">
                <polygon id="矩形备份-98" fill-opacity="0.331274926" fill="#0D2C59" points="-7.67386155e-13 0.589285714 216 0.589285714 216 33 -7.67386155e-13 33"></polygon>
                <g id="编组" transform="translate(0.094822, 0.000000)" stroke="#02D7FF" stroke-linecap="round">
                    <polyline id="路径-70备份-19" points="3.88318665 0 0 0 0 4.125"></polyline>
                    <polyline id="路径-70备份-23" transform="translate(1.941593, 30.937500) scale(1, -1) translate(-1.941593, -30.937500) " points="3.88318665 28.875 0 28.875 0 33"></polyline>
                </g>
                <g id="编组-3" transform="translate(212.116813, 0.000000)" stroke="#02D7FF" stroke-linecap="round">
                    <polyline id="路径-70备份-21" transform="translate(1.941593, 2.062500) scale(-1, 1) translate(-1.941593, -2.062500) " points="3.88318665 0 0 0 0 4.125"></polyline>
                    <polyline id="路径-70备份-25" transform="translate(1.941593, 30.937500) scale(-1, -1) translate(-1.941593, -30.937500) " points="3.88318665 28.875 0 28.875 0 33"></polyline>
                </g>
                <text id="天数" font-family="PingFangSC-Medium, PingFang SC" font-size="14" font-weight="400" letter-spacing="0.583333333" fill="#FFFFFF">
                    <tspan x="25.5083112" y="21.5446429">天数</tspan>
                </text>
            </g>
            <g id="编组-41备份-5" transform="translate(172.000000, 5.000000)" fill="url(#linearGradient-1)">
                <rect id="矩形" x="0" y="0" width="19" height="10"></rect>
                <rect id="矩形备份-30" transform="translate(9.500000, 18.000000) scale(1, -1) translate(-9.500000, -18.000000) " x="0" y="13" width="19" height="10"></rect>
            </g>
            <g id="编组-41备份-10" transform="translate(150.000000, 5.000000)" fill="url(#linearGradient-1)">
                <rect id="矩形" x="0" y="0" width="19" height="10"></rect>
                <rect id="矩形备份-30" transform="translate(9.500000, 18.000000) scale(1, -1) translate(-9.500000, -18.000000) " x="0" y="13" width="19" height="10"></rect>
            </g>
            <g id="编组-41备份-11" transform="translate(127.000000, 5.000000)" fill="url(#linearGradient-1)">
                <rect id="矩形" x="0" y="0" width="19" height="10"></rect>
                <rect id="矩形备份-30" transform="translate(9.500000, 18.000000) scale(1, -1) translate(-9.500000, -18.000000) " x="0" y="13" width="19" height="10"></rect>
            </g>
            <g id="编组-41备份-12" transform="translate(105.000000, 5.000000)" fill="url(#linearGradient-1)">
                <rect id="矩形" x="0" y="0" width="19" height="10"></rect>
                <rect id="矩形备份-30" transform="translate(9.500000, 18.000000) scale(1, -1) translate(-9.500000, -18.000000) " x="0" y="13" width="19" height="10"></rect>
            </g>
        </g>
    </g>
</svg>