<?xml version="1.0" encoding="UTF-8"?>
<svg width="355px" height="44px" viewBox="0 0 355 44" version="1.1" xmlns="http://www.w3.org/2000/svg" xmlns:xlink="http://www.w3.org/1999/xlink">
    <title>编组 11备份 6</title>
    <defs>
        <linearGradient x1="50%" y1="0%" x2="50%" y2="100%" id="linearGradient-1">
            <stop stop-color="#29659F" offset="0%"></stop>
            <stop stop-color="#28BCFF" stop-opacity="0" offset="100%"></stop>
        </linearGradient>
    </defs>
    <g id="页面-1" stroke="none" stroke-width="1" fill="none" fill-rule="evenodd">
        <g id="编组-11备份-6" transform="translate(0.104594, 1.000000)">
            <polygon id="矩形备份-98" fill-opacity="0.331274926" fill="#0D2C59" points="39.8954056 0.75 353.895406 0.75 353.895406 42 39.8954056 42"></polygon>
            <g id="编组" transform="translate(40.016128, 0.000000)" stroke="#02D7FF" stroke-linecap="round">
                <polyline id="路径-70备份-19" points="4.9438719 0 0 0 0 5.25"></polyline>
                <polyline id="路径-70备份-23" transform="translate(2.471936, 39.375000) scale(1, -1) translate(-2.471936, -39.375000) " points="4.9438719 36.75 0 36.75 0 42"></polyline>
            </g>
            <g id="编组-3" transform="translate(348.951534, 0.000000)" stroke="#02D7FF" stroke-linecap="round">
                <polyline id="路径-70备份-21" transform="translate(2.471936, 2.625000) scale(-1, 1) translate(-2.471936, -2.625000) " points="4.9438719 0 0 0 0 5.25"></polyline>
                <polyline id="路径-70备份-25" transform="translate(2.471936, 39.375000) scale(-1, -1) translate(-2.471936, -39.375000) " points="4.9438719 36.75 0 36.75 0 42"></polyline>
            </g>
            <text id="累计" font-family="PingFangSC-Regular, PingFang SC" font-size="12" font-weight="normal" letter-spacing="0.5" fill="#FFFFFF">
                <tspan x="0.5" y="26.0568182">累计</tspan>
            </text>
            <text id="天" font-family="PingFangSC-Regular, PingFang SC" font-size="12" font-weight="normal" letter-spacing="0.5" fill="#FFFFFF">
                <tspan x="141.75" y="26.0568182">天</tspan>
            </text>
            <text id="时" font-family="PingFangSC-Regular, PingFang SC" font-size="12" font-weight="normal" letter-spacing="0.5" fill="#FFFFFF">
                <tspan x="204.75" y="26.0568182">时</tspan>
            </text>
            <text id="分" font-family="PingFangSC-Regular, PingFang SC" font-size="12" font-weight="normal" letter-spacing="0.5" fill="#FFFFFF">
                <tspan x="267.75" y="26.0568182">分</tspan>
            </text>
            <text id="秒" font-family="PingFangSC-Regular, PingFang SC" font-size="12" font-weight="normal" letter-spacing="0.5" fill="#FFFFFF">
                <tspan x="327.75" y="26.0568182">秒</tspan>
            </text>
            <g id="编组-41备份-5" transform="translate(117.895406, 7.000000)" fill="url(#linearGradient-1)">
                <rect id="矩形" x="0" y="0" width="17" height="13"></rect>
                <rect id="矩形备份-30" transform="translate(8.500000, 22.500000) scale(1, -1) translate(-8.500000, -22.500000) " x="0" y="16" width="17" height="13"></rect>
            </g>
            <g id="编组-41备份-6" transform="translate(180.895406, 7.000000)" fill="url(#linearGradient-1)">
                <rect id="矩形" x="0" y="0" width="17" height="13"></rect>
                <rect id="矩形备份-30" transform="translate(8.500000, 22.500000) scale(1, -1) translate(-8.500000, -22.500000) " x="0" y="16" width="17" height="13"></rect>
            </g>
            <g id="编组-41备份-7" transform="translate(243.895406, 7.000000)" fill="url(#linearGradient-1)">
                <rect id="矩形" x="0" y="0" width="17" height="13"></rect>
                <rect id="矩形备份-30" transform="translate(8.500000, 22.500000) scale(1, -1) translate(-8.500000, -22.500000) " x="0" y="16" width="17" height="13"></rect>
            </g>
            <g id="编组-41备份-8" transform="translate(303.895406, 7.000000)" fill="url(#linearGradient-1)">
                <rect id="矩形" x="0" y="0" width="17" height="13"></rect>
                <rect id="矩形备份-30" transform="translate(8.500000, 22.500000) scale(1, -1) translate(-8.500000, -22.500000) " x="0" y="16" width="17" height="13"></rect>
            </g>
            <g id="编组-41备份-10" transform="translate(97.895406, 7.000000)" fill="url(#linearGradient-1)">
                <rect id="矩形" x="0" y="0" width="17" height="13"></rect>
                <rect id="矩形备份-30" transform="translate(8.500000, 22.500000) scale(1, -1) translate(-8.500000, -22.500000) " x="0" y="16" width="17" height="13"></rect>
            </g>
            <g id="编组-41备份-13" transform="translate(160.895406, 7.000000)" fill="url(#linearGradient-1)">
                <rect id="矩形" x="0" y="0" width="17" height="13"></rect>
                <rect id="矩形备份-30" transform="translate(8.500000, 22.500000) scale(1, -1) translate(-8.500000, -22.500000) " x="0" y="16" width="17" height="13"></rect>
            </g>
            <g id="编组-41备份-14" transform="translate(223.895406, 7.000000)" fill="url(#linearGradient-1)">
                <rect id="矩形" x="0" y="0" width="17" height="13"></rect>
                <rect id="矩形备份-30" transform="translate(8.500000, 22.500000) scale(1, -1) translate(-8.500000, -22.500000) " x="0" y="16" width="17" height="13"></rect>
            </g>
            <g id="编组-41备份-15" transform="translate(283.895406, 7.000000)" fill="url(#linearGradient-1)">
                <rect id="矩形" x="0" y="0" width="17" height="13"></rect>
                <rect id="矩形备份-30" transform="translate(8.500000, 22.500000) scale(1, -1) translate(-8.500000, -22.500000) " x="0" y="16" width="17" height="13"></rect>
            </g>
            <g id="编组-41备份-11" transform="translate(77.895406, 7.000000)" fill="url(#linearGradient-1)">
                <rect id="矩形" x="0" y="0" width="17" height="13"></rect>
                <rect id="矩形备份-30" transform="translate(8.500000, 22.500000) scale(1, -1) translate(-8.500000, -22.500000) " x="0" y="16" width="17" height="13"></rect>
            </g>
            <g id="编组-41备份-12" transform="translate(57.895406, 7.000000)" fill="url(#linearGradient-1)">
                <rect id="矩形" x="0" y="0" width="17" height="13"></rect>
                <rect id="矩形备份-30" transform="translate(8.500000, 22.500000) scale(1, -1) translate(-8.500000, -22.500000) " x="0" y="16" width="17" height="13"></rect>
            </g>
        </g>
    </g>
</svg>