<svg xmlns="http://www.w3.org/2000/svg" xmlns:xlink="http://www.w3.org/1999/xlink" fill="none" version="1.1" width="335" height="34" viewBox="0 0 335 34"><defs><filter id="master_svg0_0_47" filterUnits="objectBoundingBox" color-interpolation-filters="sRGB" x="-16" y="-16" width="38" height="41"><feFlood flood-opacity="0" result="BackgroundImageFix"/><feColorMatrix in="SourceAlpha" type="matrix" values="0 0 0 0 0 0 0 0 0 0 0 0 0 0 0 0 0 0 127 0"/><feOffset dy="0" dx="0"/><feGaussianBlur stdDeviation="4"/><feColorMatrix type="matrix" values="0 0 0 0 0.0313725508749485 0 0 0 0 0.545098066329956 0 0 0 0 1 0 0 0 1 0"/><feBlend mode="normal" in2="BackgroundImageFix" result="effect1_dropShadow"/><feBlend mode="normal" in="SourceGraphic" in2="effect1_dropShadow" result="shape"/></filter><linearGradient x1="0.5" y1="0" x2="0.5" y2="1" id="master_svg1_0_49"><stop offset="0%" stop-color="#FFFFFF" stop-opacity="1"/><stop offset="100%" stop-color="#7EC2FF" stop-opacity="1"/></linearGradient></defs><g><g><path d="M0.25,1L219,1L244,33L0.25,33L0.25,17L0.25,1Z" fill-rule="evenodd" fill="#088BFF" fill-opacity="0.20000000298023224"/></g><g><path d="M334.25,33.5L0.5,33.5L0.5,32.5L334.25,32.5L334.25,33.5Z" fill-rule="evenodd" fill="#7EC2FF" fill-opacity="0.20000000298023224"/></g><g><path d="M334.25,1.5L0.5,1.5L0.5,0.5L334.25,0.5L334.25,1.5Z" fill-rule="evenodd" fill="#7EC2FF" fill-opacity="0.20000000298023224"/></g><g><path d="M334.25,34L318.25,34L318.25,32L334.25,32L334.25,34Z" fill-rule="evenodd" fill="#7EC2FF" fill-opacity="0.5"/></g><g><path d="M334.25,2L318.25,2L318.25,0L334.25,0L334.25,2Z" fill-rule="evenodd" fill="#7EC2FF" fill-opacity="0.5"/></g><g><g><rect x="311.7644462585449" y="15.5" width="12.485548973083496" height="4" rx="0" fill="#7EC2FF" fill-opacity="1"/></g><g style="opacity:0.800000011920929;"><rect x="296.2615547180176" y="15.5" width="12.485548973083496" height="4" rx="0" fill="#7EC2FF" fill-opacity="1"/></g><g style="opacity:0.6000000238418579;"><rect x="280.75866508483887" y="15.5" width="12.485548973083496" height="4" rx="0" fill="#7EC2FF" fill-opacity="1"/></g><g style="opacity:0.4000000059604645;"><rect x="265.25577449798584" y="15.5" width="12.485548973083496" height="4" rx="0" fill="#7EC2FF" fill-opacity="1"/></g><g style="opacity:0.20000000298023224;"><rect x="249.7528839111328" y="15.5" width="12.485548973083496" height="4" rx="0" fill="#7EC2FF" fill-opacity="1"/></g></g><g filter="url(#master_svg0_0_47)"><path d="M13.42422676086426,13L19.424226760864258,17.383110000000002L13.42422676086426,22L13.42422676086426,13Z" fill="url(#master_svg1_0_49)" fill-opacity="1"/></g></g></svg>