<?xml version="1.0" encoding="UTF-8"?>
<svg width="282px" height="35px" viewBox="0 0 282 35" version="1.1" xmlns="http://www.w3.org/2000/svg" xmlns:xlink="http://www.w3.org/1999/xlink">
    <title>编组 15备份 3</title>
    <g id="页面-1" stroke="none" stroke-width="1" fill="none" fill-rule="evenodd">
        <g id="编组-12" transform="translate(1.000000, 1.000000)">
            <polygon id="矩形备份-98" fill-opacity="0.331274926" fill="#0D2C59" points="-7.11483852e-13 0.589285714 280 0.589285714 280 33 -7.11483852e-13 33"></polygon>
            <g id="编组" transform="translate(0.094822, 0.000000)" stroke="#02D7FF" stroke-linecap="round">
                <polyline id="路径-70备份-19" points="3.88318665 0 0 0 0 4.125"></polyline>
                <polyline id="路径-70备份-23" transform="translate(1.941593, 30.937500) scale(1, -1) translate(-1.941593, -30.937500) " points="3.88318665 28.875 0 28.875 0 33"></polyline>
            </g>
            <g id="编组-3" transform="translate(276.116813, 0.000000)" stroke="#02D7FF" stroke-linecap="round">
                <polyline id="路径-70备份-21" transform="translate(1.941593, 2.062500) scale(-1, 1) translate(-1.941593, -2.062500) " points="3.88318665 0 0 0 0 4.125"></polyline>
                <polyline id="路径-70备份-25" transform="translate(1.941593, 30.937500) scale(-1, -1) translate(-1.941593, -30.937500) " points="3.88318665 28.875 0 28.875 0 33"></polyline>
            </g>
            <text id="数据统计" font-family="PingFangSC-Regular, PingFang SC" font-size="14" font-weight="normal" letter-spacing="0.583333333" fill="#FFFFFF">
                <tspan x="17.6466299" y="21.875">数据统计</tspan>
            </text>
        </g>
    </g>
</svg>