<?xml version="1.0" encoding="UTF-8"?>
<svg width="358px" height="44px" viewBox="0 0 358 44" version="1.1" xmlns="http://www.w3.org/2000/svg" xmlns:xlink="http://www.w3.org/1999/xlink">
    <title>编组 15备份 2</title>
    <g id="页面-1" stroke="none" stroke-width="1" fill="none" fill-rule="evenodd">
        <g id="编组-12" transform="translate(1.000000, 1.000000)">
            <polygon id="矩形备份-98" fill-opacity="0.331274926" fill="#0D2C59" points="-9.04600898e-13 0.75 356 0.75 356 42 -9.04600898e-13 42"></polygon>
            <g id="编组" transform="translate(0.120559, 0.000000)" stroke="#02D7FF" stroke-linecap="round">
                <polyline id="路径-70备份-19" points="4.93719446 0 0 0 0 5.25"></polyline>
                <polyline id="路径-70备份-23" transform="translate(2.468597, 39.375000) scale(1, -1) translate(-2.468597, -39.375000) " points="4.93719446 36.75 0 36.75 0 42"></polyline>
            </g>
            <g id="编组-3" transform="translate(351.062806, 0.000000)" stroke="#02D7FF" stroke-linecap="round">
                <polyline id="路径-70备份-21" transform="translate(2.468597, 2.625000) scale(-1, 1) translate(-2.468597, -2.625000) " points="4.93719446 0 0 0 0 5.25"></polyline>
                <polyline id="路径-70备份-25" transform="translate(2.468597, 39.375000) scale(-1, -1) translate(-2.468597, -39.375000) " points="4.93719446 36.75 0 36.75 0 42"></polyline>
            </g>
            <text id="数据统计" font-family="PingFangSC-Regular, PingFang SC" font-size="12" font-weight="normal" letter-spacing="0.5" fill="#FFFFFF">
                <tspan x="12.5959532" y="26.4772727">数据统计</tspan>
            </text>
        </g>
    </g>
</svg>