<?xml version="1.0" encoding="UTF-8"?>
<svg width="280px" height="44px" viewBox="0 0 280 44" version="1.1" xmlns="http://www.w3.org/2000/svg" xmlns:xlink="http://www.w3.org/1999/xlink">
    <title>编组 13备份</title>
    <defs>
        <linearGradient x1="50%" y1="0%" x2="50%" y2="100%" id="linearGradient-1">
            <stop stop-color="#29659F" offset="0%"></stop>
            <stop stop-color="#28BCFF" stop-opacity="0" offset="100%"></stop>
        </linearGradient>
    </defs>
    <g id="页面-1" stroke="none" stroke-width="1" fill="none" fill-rule="evenodd">
        <g id="编组-13备份" transform="translate(1.000000, 1.000000)">
            <g id="编组-12">
                <polygon id="矩形备份-98" fill-opacity="0.331274926" fill="#0D2C59" points="-7.06401824e-13 0.75 278 0.75 278 42 -7.06401824e-13 42"></polygon>
                <g id="编组" transform="translate(0.120559, 0.000000)" stroke="#02D7FF" stroke-linecap="round">
                    <polyline id="路径-70备份-19" points="4.93719446 0 0 0 0 5.25"></polyline>
                    <polyline id="路径-70备份-23" transform="translate(2.468597, 39.375000) scale(1, -1) translate(-2.468597, -39.375000) " points="4.93719446 36.75 0 36.75 0 42"></polyline>
                </g>
                <g id="编组-3" transform="translate(273.062806, 0.000000)" stroke="#02D7FF" stroke-linecap="round">
                    <polyline id="路径-70备份-21" transform="translate(2.468597, 2.625000) scale(-1, 1) translate(-2.468597, -2.625000) " points="4.93719446 0 0 0 0 5.25"></polyline>
                    <polyline id="路径-70备份-25" transform="translate(2.468597, 39.375000) scale(-1, -1) translate(-2.468597, -39.375000) " points="4.93719446 36.75 0 36.75 0 42"></polyline>
                </g>
            </g>
            <text id="条" font-family="PingFangSC-Regular, PingFang SC" font-size="12" font-weight="normal" letter-spacing="0.5" fill="#FFFFFF">
                <tspan x="256.854594" y="26.0568182">条</tspan>
            </text>
            <g id="编组-41备份-9" transform="translate(71.000000, 7.000000)" fill="url(#linearGradient-1)">
                <rect id="矩形" x="0" y="0" width="17" height="13"></rect>
                <rect id="矩形备份-30" transform="translate(8.500000, 22.500000) scale(1, -1) translate(-8.500000, -22.500000) " x="0" y="16" width="17" height="13"></rect>
            </g>
            <g id="编组-41备份-19" transform="translate(151.000000, 7.000000)" fill="url(#linearGradient-1)">
                <rect id="矩形" x="0" y="0" width="17" height="13"></rect>
                <rect id="矩形备份-30" transform="translate(8.500000, 22.500000) scale(1, -1) translate(-8.500000, -22.500000) " x="0" y="16" width="17" height="13"></rect>
            </g>
            <g id="编组-41备份-16" transform="translate(51.000000, 7.000000)" fill="url(#linearGradient-1)">
                <rect id="矩形" x="0" y="0" width="17" height="13"></rect>
                <rect id="矩形备份-30" transform="translate(8.500000, 22.500000) scale(1, -1) translate(-8.500000, -22.500000) " x="0" y="16" width="17" height="13"></rect>
            </g>
            <g id="编组-41备份-20" transform="translate(131.000000, 7.000000)" fill="url(#linearGradient-1)">
                <rect id="矩形" x="0" y="0" width="17" height="13"></rect>
                <rect id="矩形备份-30" transform="translate(8.500000, 22.500000) scale(1, -1) translate(-8.500000, -22.500000) " x="0" y="16" width="17" height="13"></rect>
            </g>
            <g id="编组-41备份-24" transform="translate(211.000000, 7.000000)" fill="url(#linearGradient-1)">
                <rect id="矩形" x="0" y="0" width="17" height="13"></rect>
                <rect id="矩形备份-30" transform="translate(8.500000, 22.500000) scale(1, -1) translate(-8.500000, -22.500000) " x="0" y="16" width="17" height="13"></rect>
            </g>
            <g id="编组-41备份-17" transform="translate(31.000000, 7.000000)" fill="url(#linearGradient-1)">
                <rect id="矩形" x="0" y="0" width="17" height="13"></rect>
                <rect id="矩形备份-30" transform="translate(8.500000, 22.500000) scale(1, -1) translate(-8.500000, -22.500000) " x="0" y="16" width="17" height="13"></rect>
            </g>
            <g id="编组-41备份-21" transform="translate(111.000000, 7.000000)" fill="url(#linearGradient-1)">
                <rect id="矩形" x="0" y="0" width="17" height="13"></rect>
                <rect id="矩形备份-30" transform="translate(8.500000, 22.500000) scale(1, -1) translate(-8.500000, -22.500000) " x="0" y="16" width="17" height="13"></rect>
            </g>
            <g id="编组-41备份-25" transform="translate(191.000000, 7.000000)" fill="url(#linearGradient-1)">
                <rect id="矩形" x="0" y="0" width="17" height="13"></rect>
                <rect id="矩形备份-30" transform="translate(8.500000, 22.500000) scale(1, -1) translate(-8.500000, -22.500000) " x="0" y="16" width="17" height="13"></rect>
            </g>
            <g id="编组-41备份-27" transform="translate(231.000000, 7.000000)" fill="url(#linearGradient-1)">
                <rect id="矩形" x="0" y="0" width="17" height="13"></rect>
                <rect id="矩形备份-30" transform="translate(8.500000, 22.500000) scale(1, -1) translate(-8.500000, -22.500000) " x="0" y="16" width="17" height="13"></rect>
            </g>
            <g id="编组-41备份-18" transform="translate(11.000000, 7.000000)" fill="url(#linearGradient-1)">
                <rect id="矩形" x="0" y="0" width="17" height="13"></rect>
                <rect id="矩形备份-30" transform="translate(8.500000, 22.500000) scale(1, -1) translate(-8.500000, -22.500000) " x="0" y="16" width="17" height="13"></rect>
            </g>
            <g id="编组-41备份-22" transform="translate(91.000000, 7.000000)" fill="url(#linearGradient-1)">
                <rect id="矩形" x="0" y="0" width="17" height="13"></rect>
                <rect id="矩形备份-30" transform="translate(8.500000, 22.500000) scale(1, -1) translate(-8.500000, -22.500000) " x="0" y="16" width="17" height="13"></rect>
            </g>
            <g id="编组-41备份-26" transform="translate(171.000000, 7.000000)" fill="url(#linearGradient-1)">
                <rect id="矩形" x="0" y="0" width="17" height="13"></rect>
                <rect id="矩形备份-30" transform="translate(8.500000, 22.500000) scale(1, -1) translate(-8.500000, -22.500000) " x="0" y="16" width="17" height="13"></rect>
            </g>
        </g>
    </g>
</svg>