<?xml version="1.0" encoding="UTF-8"?>
<svg width="17px" height="17px" viewBox="0 0 17 17" version="1.1" xmlns="http://www.w3.org/2000/svg" xmlns:xlink="http://www.w3.org/1999/xlink">
    <title>编组 18</title>
    <defs>
        <linearGradient x1="124.415059%" y1="17.8979609%" x2="28.8445515%" y2="78.7097433%" id="linearGradient-1">
            <stop stop-color="#FDFAFD" offset="0%"></stop>
            <stop stop-color="#8B44FF" offset="100%"></stop>
        </linearGradient>
    </defs>
    <g id="页面-1" stroke="none" stroke-width="1" fill="none" fill-rule="evenodd">
        <g id="数据汇聚概览1" transform="translate(-722.000000, -349.000000)">
            <g id="编组-14" transform="translate(493.000000, 182.000000)">
                <g id="编组-18" transform="translate(229.000000, 167.000000)">
                    <g id="编组" fill="#5B3392" fill-rule="nonzero">
                        <path d="M13.8754135,0 L1.12458655,0 C0.50275634,0 0,0.448353587 0,0.999607997 L0,14.000392 C0,14.5531164 0.504410143,15 1.12458655,15 L13.8754135,15 C14.4972437,15 15,14.5516464 15,14.000392 L15,0.999607997 C15,0.446883575 14.4972437,0 13.8754135,0 L13.8754135,0 Z M5.99173098,5.9506076 C5.99173098,6.5371423 5.60804851,7.04723638 5.05402426,7.29272834 L5.05402426,12.0423363 C5.05402426,12.3877891 4.73980154,12.6670913 4.35115766,12.6670913 L4.25689085,12.6670913 C3.86824697,12.6670913 3.55402426,12.3877891 3.55402426,12.0423363 L3.55402426,7.29272834 C3,7.04576637 2.61631753,6.53567229 2.61631753,5.9506076 L2.61631753,5.20090161 C2.61631753,4.61436691 3,4.10427283 3.55402426,3.85878087 L3.55402426,2.95766366 C3.55402426,2.6122109 3.86824697,2.33290866 4.25689085,2.33290866 L4.35115766,2.33290866 C4.73980154,2.33290866 5.05402426,2.6122109 5.05402426,2.95766366 L5.05402426,3.85731086 C5.60804851,4.10427283 5.99173098,4.61436691 5.99173098,5.1994316 L5.99173098,5.9506076 Z M12.3836825,9.8005684 C12.3836825,10.3871031 12,10.8971972 11.4459757,11.1426891 L11.4459757,12.0423363 C11.4459757,12.3877891 11.131753,12.6670913 10.7431092,12.6670913 L10.6488423,12.6670913 C10.2601985,12.6670913 9.94597574,12.3877891 9.94597574,12.0423363 L9.94597574,11.1426891 C9.39195149,10.8957272 9.00826902,10.3856331 9.00826902,9.8005684 L9.00826902,9.05086241 C9.00826902,8.46432771 9.39195149,7.95423363 9.94597574,7.70874167 L9.94597574,2.95766366 C9.94597574,2.6122109 10.2601985,2.33290866 10.6488423,2.33290866 L10.7431092,2.33290866 C11.131753,2.33290866 11.4459757,2.6122109 11.4459757,2.95766366 L11.4459757,7.70727166 C12,7.95423363 12.3836825,8.46432771 12.3836825,9.0493924 L12.3836825,9.8005684 Z" id="形状"></path>
                    </g>
                    <g id="编组备份-6" transform="translate(2.000000, 2.000000)" fill="url(#linearGradient-1)">
                        <path d="M13.8754135,0 L1.12458655,0 C0.50275634,0 0,0.448353587 0,0.999607997 L0,14.000392 C0,14.5531164 0.504410143,15 1.12458655,15 L13.8754135,15 C14.4972437,15 15,14.5516464 15,14.000392 L15,0.999607997 C15,0.446883575 14.4972437,0 13.8754135,0 L13.8754135,0 Z M5.99173098,5.9506076 C5.99173098,6.5371423 5.60804851,7.04723638 5.05402426,7.29272834 L5.05402426,12.0423363 C5.05402426,12.3877891 4.73980154,12.6670913 4.35115766,12.6670913 L4.25689085,12.6670913 C3.86824697,12.6670913 3.55402426,12.3877891 3.55402426,12.0423363 L3.55402426,7.29272834 C3,7.04576637 2.61631753,6.53567229 2.61631753,5.9506076 L2.61631753,5.20090161 C2.61631753,4.61436691 3,4.10427283 3.55402426,3.85878087 L3.55402426,2.95766366 C3.55402426,2.6122109 3.86824697,2.33290866 4.25689085,2.33290866 L4.35115766,2.33290866 C4.73980154,2.33290866 5.05402426,2.6122109 5.05402426,2.95766366 L5.05402426,3.85731086 C5.60804851,4.10427283 5.99173098,4.61436691 5.99173098,5.1994316 L5.99173098,5.9506076 Z M12.3836825,9.8005684 C12.3836825,10.3871031 12,10.8971972 11.4459757,11.1426891 L11.4459757,12.0423363 C11.4459757,12.3877891 11.131753,12.6670913 10.7431092,12.6670913 L10.6488423,12.6670913 C10.2601985,12.6670913 9.94597574,12.3877891 9.94597574,12.0423363 L9.94597574,11.1426891 C9.39195149,10.8957272 9.00826902,10.3856331 9.00826902,9.8005684 L9.00826902,9.05086241 C9.00826902,8.46432771 9.39195149,7.95423363 9.94597574,7.70874167 L9.94597574,2.95766366 C9.94597574,2.6122109 10.2601985,2.33290866 10.6488423,2.33290866 L10.7431092,2.33290866 C11.131753,2.33290866 11.4459757,2.6122109 11.4459757,2.95766366 L11.4459757,7.70727166 C12,7.95423363 12.3836825,8.46432771 12.3836825,9.0493924 L12.3836825,9.8005684 Z" id="形状"></path>
                    </g>
                </g>
            </g>
        </g>
    </g>
</svg>