<?xml version="1.0" encoding="UTF-8"?>
<svg width="19.4472656px" height="18.8261719px" viewBox="0 0 19.4472656 18.8261719" version="1.1" xmlns="http://www.w3.org/2000/svg" xmlns:xlink="http://www.w3.org/1999/xlink">
    <title>编组 16备份 2</title>
    <defs>
        <linearGradient x1="124.415059%" y1="20.1428387%" x2="27.7359042%" y2="77.3581916%" id="linearGradient-1">
            <stop stop-color="#FDFAFD" offset="0%"></stop>
            <stop stop-color="#3E9CFF" offset="99.4400024%"></stop>
        </linearGradient>
    </defs>
    <g id="页面-1" stroke="none" stroke-width="1" fill="none" fill-rule="evenodd">
        <g id="数据汇聚概览1" transform="translate(-721.000000, -532.000000)">
            <g id="编组-14" transform="translate(493.000000, 182.000000)">
                <g id="编组-16备份-2" transform="translate(228.000000, 350.000000)">
                    <g id="编组" fill="#074D92" fill-rule="nonzero">
                        <path d="M13.8496094,10.0957031 L13.8496094,11.0566406 C13.8964844,11.5390625 13.5429688,11.9667969 13.0605469,12.0136719 C12.578125,12.0605469 12.1503906,11.7070312 12.1035156,11.2246094 C12.0976563,11.1679688 12.0976563,11.1113281 12.1035156,11.0566406 L12.1035156,10.0957031 L5.34375,10.0957031 L5.34375,11.0566406 C5.390625,11.5390625 5.03710938,11.9667969 4.5546875,12.0136719 C4.07226562,12.0605469 3.64453125,11.7070312 3.59765625,11.2246094 C3.59179687,11.1679688 3.59179687,11.1113281 3.59765625,11.0566406 L3.59765625,10.0957031 L0,10.0957031 L0,14.6621094 C0,15.8632812 0.873046875,16.8261719 1.96289063,16.8261719 L15.484375,16.8261719 C16.5742188,16.8261719 17.4472656,15.8652344 17.4472656,14.6621094 L17.4472656,10.0957031 L13.8496094,10.0957031 Z M4.47265625,7.8125 C4.97070313,7.828125 5.36328125,8.24609375 5.34570312,8.74414062 C5.34570312,8.75390625 5.34570312,8.76367188 5.34375,8.7734375 L12.1054688,8.7734375 C12.1152344,8.28125 12.4882812,7.87109375 12.9785156,7.8125 C13.4765625,7.828125 13.8691406,8.24609375 13.8515625,8.74414062 C13.8515625,8.75390625 13.8515625,8.76367188 13.8496094,8.7734375 L17.4472656,8.7734375 L17.4472656,5.16992187 C17.4472656,3.96875 16.5742188,3.00585937 15.484375,3.00585937 L13.1953125,3.00585937 L13.1953125,2.1640625 C13.1953125,0.962890625 12.3222656,0 11.2324219,0 L6.21679688,0 C5.12695313,0 4.25390625,0.9609375 4.25390625,2.1640625 L4.25390625,3.125 L1.96289063,3.125 C0.873046875,3.12695312 0,4.08789062 0,5.2890625 L0,8.89453125 C1.19921875,8.89453125 2.3984375,8.7734375 3.59765625,8.7734375 C3.609375,8.28125 3.98242188,7.87109375 4.47265625,7.8125 Z M6.18164062,1.32617187 C6.19335938,1.32617187 6.20507812,1.32421875 6.21679688,1.32421875 L11.2324219,1.32421875 C11.6660156,1.3359375 12.0097656,1.69726562 11.9980469,2.13085937 C11.9980469,2.14257812 11.9980469,2.15429687 11.9960938,2.16601562 L11.9960938,3.12695312 L5.453125,3.12695312 L5.453125,2.16601562 C5.421875,1.73242187 5.74804688,1.35546875 6.18164063,1.32617187 L6.18164062,1.32617187 Z" id="形状"></path>
                    </g>
                    <g id="编组" transform="translate(2.000000, 2.000000)" fill="url(#linearGradient-1)">
                        <path d="M13.8496094,10.0957031 L13.8496094,11.0566406 C13.8964844,11.5390625 13.5429688,11.9667969 13.0605469,12.0136719 C12.578125,12.0605469 12.1503906,11.7070312 12.1035156,11.2246094 C12.0976563,11.1679688 12.0976563,11.1113281 12.1035156,11.0566406 L12.1035156,10.0957031 L5.34375,10.0957031 L5.34375,11.0566406 C5.390625,11.5390625 5.03710938,11.9667969 4.5546875,12.0136719 C4.07226562,12.0605469 3.64453125,11.7070312 3.59765625,11.2246094 C3.59179687,11.1679688 3.59179687,11.1113281 3.59765625,11.0566406 L3.59765625,10.0957031 L0,10.0957031 L0,14.6621094 C0,15.8632812 0.873046875,16.8261719 1.96289063,16.8261719 L15.484375,16.8261719 C16.5742188,16.8261719 17.4472656,15.8652344 17.4472656,14.6621094 L17.4472656,10.0957031 L13.8496094,10.0957031 Z M4.47265625,7.8125 C4.97070313,7.828125 5.36328125,8.24609375 5.34570312,8.74414062 C5.34570312,8.75390625 5.34570312,8.76367188 5.34375,8.7734375 L12.1054688,8.7734375 C12.1152344,8.28125 12.4882812,7.87109375 12.9785156,7.8125 C13.4765625,7.828125 13.8691406,8.24609375 13.8515625,8.74414062 C13.8515625,8.75390625 13.8515625,8.76367188 13.8496094,8.7734375 L17.4472656,8.7734375 L17.4472656,5.16992187 C17.4472656,3.96875 16.5742188,3.00585937 15.484375,3.00585937 L13.1953125,3.00585937 L13.1953125,2.1640625 C13.1953125,0.962890625 12.3222656,0 11.2324219,0 L6.21679688,0 C5.12695313,0 4.25390625,0.9609375 4.25390625,2.1640625 L4.25390625,3.125 L1.96289063,3.125 C0.873046875,3.12695312 0,4.08789062 0,5.2890625 L0,8.89453125 C1.19921875,8.89453125 2.3984375,8.7734375 3.59765625,8.7734375 C3.609375,8.28125 3.98242188,7.87109375 4.47265625,7.8125 Z M6.18164062,1.32617187 C6.19335938,1.32617187 6.20507812,1.32421875 6.21679688,1.32421875 L11.2324219,1.32421875 C11.6660156,1.3359375 12.0097656,1.69726562 11.9980469,2.13085937 C11.9980469,2.14257812 11.9980469,2.15429687 11.9960938,2.16601562 L11.9960938,3.12695312 L5.453125,3.12695312 L5.453125,2.16601562 C5.421875,1.73242187 5.74804688,1.35546875 6.18164063,1.32617187 L6.18164062,1.32617187 Z" id="形状"></path>
                    </g>
                </g>
            </g>
        </g>
    </g>
</svg>